<svg width="1476" height="542" viewBox="0 0 1476 542" fill="none" xmlns="http://www.w3.org/2000/svg">
<g clip-path="url(#clip0_315_14)">
<path fill-rule="evenodd" clip-rule="evenodd" d="M-1210 435.685H-1145.09C-1082.42 435.685 -954.83 435.685 -827.245 423.583C-697.422 411.481 -569.837 387.276 -442.252 411.481C-314.667 435.685 -187.082 508.3 -59.4967 532.504C68.0883 556.709 197.912 532.504 325.497 484.095C453.082 435.685 580.667 363.071 708.252 326.764C835.837 290.457 963.422 290.457 1093.24 254.15C1220.83 217.843 1348.41 145.228 1411.09 108.921L1476 72.6142V0L1411.09 0C1348.41 0 1220.83 0 1093.24 0C963.422 0 835.837 0 708.252 0C580.667 0 453.082 0 325.497 0C197.912 0 68.0883 0 -59.4967 0C-187.082 0 -314.667 0 -442.252 0C-569.837 0 -697.422 0 -827.245 0C-954.83 0 -1082.42 0 -1145.09 0L-1210 0V435.685Z" fill="#DF7861"/>
</g>
<defs>
<clipPath id="clip0_315_14">
<rect width="1476" height="542" fill="white"/>
</clipPath>
</defs>
</svg>
